<?xml version="1.0" standalone="no"?>
<!DOCTYPE svg PUBLIC "-//W3C//DTD SVG 1.1//EN" "http://www.w3.org/Graphics/SVG/1.1/DTD/svg11.dtd" >
<svg xmlns="http://www.w3.org/2000/svg">
<metadata>
This is a custom SVG webfont generated by Font Squirrel.
Copyright   : Copyright c 2008 by ShyFoundry All rights reserved Freeware for personal use only To purchase a commercial license please visit our site at httpwwwshyfoundrycom
Designer    : Derek Vogelpohl
Foundry     : ShyFoundry
Foundry URL : httpwwwshyfoundrycom
</metadata>
<defs>
<font id="SFMoviePosterBold" horiz-adv-x="435" >
<font-face units-per-em="2048" ascent="1638" descent="-410" />
<missing-glyph horiz-adv-x="500" />
<glyph unicode=" " />
<glyph unicode="!" horiz-adv-x="245" d="M57 -15v119h123v-119h-123zM57 1410h123l-18 -1166h-88z" />
<glyph unicode="&#x22;" horiz-adv-x="453" d="M76 1410h126l-21 -208h-83zM251 1410h125l-21 -208h-84z" />
<glyph unicode="#" horiz-adv-x="704" d="M52 940v122h128l7 96h-135v121h147l10 131h121l-10 -131h96l10 131h123l-11 -131h115v-121h-128l-6 -96h134v-122h-146l-11 -130h-122l11 130h-96l-11 -130h-121l10 130h-115zM301 1062h96l7 96h-96z" />
<glyph unicode="$" horiz-adv-x="495" d="M56 200v165h121v-165q0 -104 70 -104q33 0 54 37q16 28 16 67v157q0 113 -68 224q-32 49 -63 97.5t-63 97.5q-67 124 -67 259v157q0 77 38 136q41 68 110 86v83h87v-83q68 -18 110 -86q38 -59 38 -136v-165h-122v165q0 104 -70 104q-36 0 -52 -33q-18 -37 -18 -71v-157 q0 -113 69 -224q31 -49 62.5 -98t62.5 -99q68 -121 68 -257v-157q0 -77 -38 -136q-41 -66 -110 -83v-84h-87v84q-69 17 -110 83q-38 59 -38 136z" />
<glyph unicode="%" horiz-adv-x="913" d="M47 887v297q0 88 53 156q54 70 139 70q84 0 140 -72q51 -66 51 -154v-297q0 -7 -0.5 -14t-1.5 -15l134 634l120 -24l-187 -887q47 150 178 150q86 0 142 -71q50 -65 50 -155v-296q0 -90 -50 -155q-57 -69 -142 -69q-84 0 -137 68q-54 68 -54 156v296v15q0 9 1 14 l-133 -632l-120 25l188 883q-46 -148 -179 -148q-85 0 -139 69q-53 69 -53 156zM169 887q0 -38 16 -67q19 -37 54 -37q69 0 69 104v297q0 104 -69 104q-35 0 -54 -36q-16 -30 -16 -68v-297zM604 209q0 -40 16 -68q19 -37 53 -37q71 0 71 105v296q0 104 -71 104 q-34 0 -53 -37q-16 -28 -16 -67v-296z" />
<glyph unicode="&#x26;" horiz-adv-x="554" d="M76 209v287q0 138 99 201q-99 62 -99 200v287q0 87 52 153q55 73 140 73q84 0 141 -73q51 -66 51 -153v-157h-122v157q0 33 -18 70q-16 34 -52 34q-35 0 -52 -34q-17 -37 -17 -70v-322q0 -37 15 -68q20 -37 54 -37h235v-122h-43v-426q0 -87 -51 -153q-56 -71 -141 -71 t-140 71q-52 66 -52 153zM199 209q0 -37 15 -68q20 -37 54 -37t54 37q16 31 16 68v426h-70q-35 0 -52 -34q-17 -37 -17 -70v-322z" />
<glyph unicode="'" horiz-adv-x="259" d="M64 1410h126l-21 -208h-83z" />
<glyph unicode="(" horiz-adv-x="389" d="M40 697q0 236 41 410q41 179 140 390h126q-52 -109 -87.5 -206.5t-55.5 -183.5q-42 -185 -42 -410q0 -228 42 -409q20 -88 55.5 -185.5t87.5 -205.5h-126q-100 209 -140 389q-41 176 -41 411z" />
<glyph unicode=")" horiz-adv-x="391" d="M44 -103q52 108 87 205.5t56 185.5q41 181 41 409q0 225 -41 410q-21 86 -56 183.5t-87 206.5h125q50 -107 85 -204t55 -186q41 -174 41 -410q0 -237 -41 -410q-20 -90 -55 -186.5t-85 -203.5h-125z" />
<glyph unicode="*" horiz-adv-x="561" d="M44 1111l126 64l-126 64l60 106l113 -66v131h123v-131l113 66l60 -106l-126 -64l126 -64l-60 -106l-113 66v-131h-123v131l-113 -66z" />
<glyph unicode="+" horiz-adv-x="443" d="M30 461v122h130v131h122v-131h130v-122h-130v-131h-122v131h-130z" />
<glyph unicode="," horiz-adv-x="259" d="M64 104h126l-21 -207h-83z" />
<glyph unicode="-" horiz-adv-x="556" d="M86 461v122h382v-122h-382z" />
<glyph unicode="." horiz-adv-x="300" d="M86 -15v119h121v-119h-121z" />
<glyph unicode="/" horiz-adv-x="477" d="M12 -73l333 1565l120 -24l-332 -1566z" />
<glyph unicode="0" horiz-adv-x="546" d="M81 200v992q0 88 53 156q53 71 137 71q86 0 141 -72q51 -66 51 -155v-992q0 -89 -51 -155q-55 -69 -141 -69q-84 0 -137 68t-53 156zM202 200q0 -39 15 -67q20 -37 54 -37q71 0 71 104v992q0 104 -71 104q-33 0 -54 -35q-15 -30 -15 -69v-992z" />
<glyph unicode="1" horiz-adv-x="318" d="M19 1288v122h209v-1425h-122v1303h-87z" />
<glyph unicode="2" horiz-adv-x="510" d="M76 -15v372q0 134 69 257q31 49 62.5 98t62.5 99q68 113 68 224v157q0 39 -16 69q-20 35 -54 35q-69 0 -69 -104v-165h-123v165q0 88 54 156q53 71 138 71q84 0 141 -74q51 -66 51 -153v-157q0 -133 -68 -257q-32 -50 -63 -99t-63 -98q-67 -113 -67 -224v-253h261v-119 h-384z" />
<glyph unicode="3" horiz-adv-x="527" d="M66 209v156h122v-156q0 -40 16 -68q18 -37 54 -37q35 0 53 37q16 28 16 68v322q0 39 -16 68q-18 36 -53 36h-105v122h105q35 0 53 37q16 28 16 68v322q0 39 -16 68q-18 36 -53 36q-36 0 -54 -36q-16 -29 -16 -68v-157h-122v157q0 88 53 156q54 70 139 70t141 -72 q50 -65 50 -154v-287q0 -138 -99 -200q99 -63 99 -201v-287q0 -90 -50 -155q-57 -69 -141 -69q-86 0 -139 68t-53 156z" />
<glyph unicode="4" horiz-adv-x="507" d="M37 461v949h121v-827h140v827h121v-1425h-121v476h-261z" />
<glyph unicode="5" horiz-adv-x="525" d="M81 200v165h121v-165q0 -104 69 -104q34 0 54 37q17 28 17 67v505q0 105 -71 105t-71 -145q0 -1 0.5 -17t1.5 -47h-121v809h382v-122h-261v-394q41 37 96 37q78 0 126 -76q39 -67 39 -150v-505q0 -86 -51 -155q-55 -69 -141 -69q-84 0 -137 68t-53 156z" />
<glyph unicode="6" horiz-adv-x="541" d="M81 200v992q0 88 53 156q53 71 137 71q86 0 141 -74q51 -66 51 -153v-165h-121v165q0 37 -19 71q-17 33 -52 33q-69 0 -69 -104v-298q41 37 96 37q78 0 126 -76q39 -67 39 -150v-505q0 -86 -51 -155q-55 -69 -141 -69q-83 0 -140 69q-50 65 -50 155zM202 200 q0 -104 69 -104q34 0 54 37q17 28 17 67v505q0 105 -71 105q-69 0 -69 -105v-505z" />
<glyph unicode="7" horiz-adv-x="443" d="M40 -15l251 1303h-212v122h351l-273 -1425h-117z" />
<glyph unicode="8" horiz-adv-x="536" d="M74 209v287q0 137 100 201q-100 63 -100 200v287q0 88 54 156q54 70 138 70q86 0 141 -73q51 -66 51 -153v-287q0 -138 -99 -200q99 -63 99 -201v-287q0 -86 -51 -155q-55 -69 -141 -69q-85 0 -138 68q-54 68 -54 156zM197 209q0 -40 15 -68q20 -37 54 -37t54 37 q16 28 16 68v322q0 38 -16 68q-20 36 -54 36t-54 -36q-15 -30 -15 -68v-322zM197 862q0 -40 15 -68q20 -37 54 -37t54 37q16 28 16 68v322q0 38 -16 68q-20 36 -54 36t-54 -36q-15 -30 -15 -68v-322z" />
<glyph unicode="9" horiz-adv-x="541" d="M74 200v165h123v-165q0 -37 15 -67q20 -37 54 -37q70 0 70 104v300q-42 -39 -95 -39q-81 0 -128 77q-39 66 -39 149v505q0 87 51 153q56 74 141 74q86 0 141 -72q51 -69 51 -155v-992q0 -86 -51 -155q-55 -69 -141 -69q-85 0 -141 71q-51 66 -51 153zM197 687 q0 -104 69 -104q70 0 70 104v505q0 104 -70 104q-33 0 -54 -35q-15 -30 -15 -69v-505z" />
<glyph unicode=":" horiz-adv-x="222" d="M86 -15v119h121v-119h-121zM86 592v122h121v-122h-121z" />
<glyph unicode=";" horiz-adv-x="261" d="M66 104h126l-22 -207h-83zM68 592v122h122v-122h-122z" />
<glyph unicode="&#x3c;" horiz-adv-x="419" d="M14 522l232 496l109 -50l-207 -446l207 -446l-109 -49z" />
<glyph unicode="=" horiz-adv-x="532" d="M86 374v122h382v-122h-382zM86 549v121h382v-121h-382z" />
<glyph unicode="&#x3e;" horiz-adv-x="416" d="M61 76l207 446l-207 446l109 50l232 -496l-232 -495z" />
<glyph unicode="?" horiz-adv-x="483" d="M71 -15v119h122v-119h-122zM71 157v548h122q0 -122 70 -122t70 104v505q0 34 -18 71q-17 33 -52 33q-70 0 -70 -104v-165h-122v165q0 88 53 156q53 71 139 71q84 0 141 -74q50 -65 50 -153v-505q0 -84 -38 -149q-48 -77 -127 -77q-54 0 -96 39v-343h-122z" />
<glyph unicode="@" horiz-adv-x="882" d="M81 200v645q0 87 50 153q56 73 140 73h349q84 0 141 -73q50 -66 50 -153v-471q0 -101 -62 -163q-62 -63 -160 -63q-44 0 -72 33q-51 -33 -103 -33q-79 0 -128 64q-45 60 -45 141v6v7q0 5 1 10q7 104 12 208q16 140 57 214q56 99 166 99q80 0 127 -63q47 -59 47 -142v-8 v-6q0 -5 -1 -10l-27 -315q0 -7 -3.5 -27t-3.5 -33q0 -18 17 -18q20 0 38 38q19 38 19 61v471q0 33 -18 70q-17 34 -52 34h-349q-35 0 -52 -34q-17 -37 -17 -70v-645q0 -37 15 -67q20 -37 54 -37h409v-120h-409q-84 0 -140 71q-50 65 -50 153zM362 360q0 -90 59 -90 q87 0 99 272q0 8 1.5 25t3.5 46q2 22 3 40t1 31q0 90 -59 90q-88 0 -99 -271q0 -13 -6 -72q-3 -44 -3 -71z" />
<glyph unicode="A" horiz-adv-x="499" d="M14 -15l173 1425h121l178 -1425h-126l-31 259h-160l-31 -259h-124zM181 365h134l-68 556z" />
<glyph unicode="B" horiz-adv-x="436" d="M28 -15v1425h191q86 0 141 -72q51 -69 51 -154v-287q0 -137 -100 -200q100 -64 100 -201v-287q0 -86 -51 -155q-55 -69 -141 -69h-191zM150 104h69q70 0 70 105v322q0 104 -70 104h-69v-531zM150 757h69q70 0 70 105v322q0 104 -70 104h-69v-531z" />
<glyph unicode="C" horiz-adv-x="431" d="M27 200v992q0 88 53 156q53 71 137 71q86 0 142 -72q50 -65 50 -155v-165h-121v165q0 104 -71 104q-33 0 -54 -35q-15 -30 -15 -69v-992q0 -39 15 -67q20 -37 54 -37q71 0 71 104v165h121v-165q0 -90 -50 -155q-57 -69 -142 -69q-84 0 -137 68t-53 156z" />
<glyph unicode="D" horiz-adv-x="436" d="M28 -15v1425h191q86 0 141 -72q51 -66 51 -154v-975q0 -89 -51 -155q-55 -69 -141 -69h-191zM150 104h69q70 0 70 105v975q0 104 -70 104h-69v-1184z" />
<glyph unicode="E" horiz-adv-x="369" d="M28 -15v1425h331v-122h-209v-531h173v-122h-173v-531h209v-119h-331z" />
<glyph unicode="F" horiz-adv-x="360" d="M28 -15v1425h331v-122h-209v-531h173v-122h-173v-650h-122z" />
<glyph unicode="G" d="M27 200v992q0 88 49 153q57 74 141 74q86 0 142 -72q50 -68 50 -155v-165h-121v165q0 104 -71 104q-35 0 -52 -33q-17 -37 -17 -71v-992q0 -39 15 -67q20 -37 54 -37q71 0 71 104v435h-88v122h209v-772h-121v27q-42 -36 -96 -36q-81 0 -128 74q-37 65 -37 150z" />
<glyph unicode="H" horiz-adv-x="440" d="M28 -15v1425h122v-653h139v653h122v-1425h-122v650h-139v-650h-122z" />
<glyph unicode="I" horiz-adv-x="180" d="M28 -15v1425h122v-1425h-122z" />
<glyph unicode="J" horiz-adv-x="414" d="M3 200v165h122v-165q0 -39 16 -67q19 -37 54 -37q69 0 69 104v1210h123v-1210q0 -89 -51 -155q-56 -69 -141 -69q-86 0 -139 68t-53 156z" />
<glyph unicode="K" horiz-adv-x="438" d="M28 -15v1425h122v-521l139 521h127l-192 -713l192 -712h-127l-139 523v-523h-122z" />
<glyph unicode="L" horiz-adv-x="360" d="M28 -15v1425h122v-1306h209v-119h-331z" />
<glyph unicode="M" horiz-adv-x="490" d="M28 -15v1425h118l100 -553l99 553h118v-1425h-121v755l-96 -524l-96 524v-755h-122z" />
<glyph unicode="N" horiz-adv-x="440" d="M28 -15v1425h118l143 -760v760h122v-1425h-118l-143 759v-759h-122z" />
<glyph unicode="O" horiz-adv-x="436" d="M27 200v992q0 88 53 156q53 71 137 71q86 0 142 -72q50 -65 50 -155v-992q0 -90 -50 -155q-57 -69 -142 -69q-84 0 -137 68t-53 156zM148 200q0 -39 15 -67q20 -37 54 -37q71 0 71 104v992q0 104 -71 104q-33 0 -54 -35q-15 -30 -15 -69v-992z" />
<glyph unicode="P" horiz-adv-x="418" d="M28 -15v1425h191q86 0 141 -72q51 -69 51 -154v-322q0 -86 -51 -155q-55 -72 -141 -72h-69v-650h-122zM150 757h69q70 0 70 105v322q0 104 -70 104h-69v-531z" />
<glyph unicode="Q" horiz-adv-x="472" d="M27 209v983q0 88 53 156q53 71 137 71q86 0 142 -72q50 -65 50 -155v-983q0 -61 -28 -105h72v-119h-236q-84 0 -137 68t-53 156zM148 209q0 -40 15 -68q20 -37 54 -37q71 0 71 105v983q0 104 -71 104q-33 0 -54 -35q-15 -30 -15 -69v-983z" />
<glyph unicode="R" horiz-adv-x="438" d="M28 -15v1425h191q86 0 141 -72q51 -69 51 -154v-287q0 -137 -100 -200q100 -64 100 -201v-511h-122v546q0 104 -70 104h-69v-650h-122zM150 757h69q70 0 70 105v322q0 104 -70 104h-69v-531z" />
<glyph unicode="S" horiz-adv-x="430" d="M22 200v165h123v-165q0 -104 69 -104q34 0 54 37q16 30 16 67v157q0 112 -68 224q-63 98 -125 193q-69 124 -69 261v157q0 87 51 153q56 74 141 74q86 0 141 -72q51 -69 51 -155v-165h-122v165q0 104 -70 104q-36 0 -52 -33q-17 -37 -17 -71v-157q0 -113 67 -224 q32 -49 63 -97.5t63 -97.5q68 -120 68 -259v-157q0 -87 -51 -153q-55 -71 -141 -71q-85 0 -139 68q-53 68 -53 156z" />
<glyph unicode="T" horiz-adv-x="401" d="M9 1288v122h383v-122h-131v-1303h-121v1303h-131z" />
<glyph unicode="U" horiz-adv-x="436" d="M27 200v1210h121v-1210q0 -39 15 -67q20 -37 54 -37q71 0 71 104v1210h121v-1210q0 -90 -50 -155q-57 -69 -142 -69q-84 0 -137 68t-53 156z" />
<glyph unicode="V" horiz-adv-x="497" d="M12 1410h124l110 -937l113 937h124l-177 -1425h-121z" />
<glyph unicode="W" horiz-adv-x="593" d="M20 1410h126l39 -876l111 712l108 -709l42 873h126l-90 -1425h-122l-66 535l-66 -535h-122z" />
<glyph unicode="X" horiz-adv-x="436" d="M22 -15l133 712l-133 713h128l67 -428l69 428h126l-132 -713l132 -712h-126l-69 426l-67 -426h-128z" />
<glyph unicode="Y" horiz-adv-x="412" d="M12 1410h126l67 -538l68 538h128l-90 -599q-18 -99 -43 -289q-2 -39 -3 -82t-1 -92q0 -30 0.5 -76t1.5 -108q1 -61 1.5 -106t0.5 -73h-125v478q0 27 -11 112.5t-33 235.5z" />
<glyph unicode="Z" horiz-adv-x="416" d="M12 -15l251 1303h-213v122h352l-251 -1306h213v-119h-352z" />
<glyph unicode="[" horiz-adv-x="362" d="M86 -103v1600h243v-122h-122v-1358h122v-120h-243z" />
<glyph unicode="\" horiz-adv-x="475" d="M10 1468l121 24l332 -1565l-120 -25z" />
<glyph unicode="]" horiz-adv-x="365" d="M32 17h121v1358h-121v122h243v-1600h-243v120z" />
<glyph unicode="^" horiz-adv-x="610" d="M42 525l188 885h149l188 -885l-119 -23l-143 675l-143 -675z" />
<glyph unicode="_" horiz-adv-x="640" d="M86 -15v119h468v-119h-468z" />
<glyph unicode="`" horiz-adv-x="304" d="M24 1671h148l84 -208h-106z" />
<glyph unicode="a" horiz-adv-x="501" d="M12 -15l176 1077h118l182 -1077h-128l-27 172h-168l-27 -172h-126zM185 278h126l-64 401z" />
<glyph unicode="b" d="M28 -15v1077h191q86 0 141 -72q51 -69 51 -155v-113q0 -137 -100 -200q100 -63 100 -200v-113q0 -86 -51 -155q-55 -69 -141 -69h-191zM150 104h69q70 0 70 105v148q0 104 -70 104h-69v-357zM150 583h69q70 0 70 104v148q0 105 -70 105h-69v-357z" />
<glyph unicode="c" horiz-adv-x="430" d="M24 200v645q0 87 54 156q53 70 138 70t141 -71q50 -66 50 -155v-166h-121v166q0 104 -70 104q-35 0 -54 -37q-16 -29 -16 -67v-645q0 -39 16 -67q19 -37 54 -37q70 0 70 104v165h121v-165q0 -90 -50 -155q-57 -69 -141 -69q-85 0 -138 68q-54 68 -54 156z" />
<glyph unicode="d" horiz-adv-x="436" d="M28 -15v1077h191q86 0 141 -72q51 -66 51 -155v-626q0 -89 -51 -155q-55 -69 -141 -69h-191zM150 104h69q70 0 70 105v626q0 105 -70 105h-69v-836z" />
<glyph unicode="e" horiz-adv-x="376" d="M28 -15v1077h331v-122h-209v-357h173v-122h-173v-357h209v-119h-331z" />
<glyph unicode="f" horiz-adv-x="362" d="M28 -15v1077h331v-122h-209v-357h173v-122h-173v-476h-122z" />
<glyph unicode="g" d="M27 200v645q0 87 49 153q57 73 141 73q86 0 142 -71q50 -69 50 -155v-166h-121v166q0 104 -71 104q-35 0 -52 -34q-17 -37 -17 -70v-645q0 -39 15 -67q20 -37 54 -37q71 0 71 104v261h-88v122h209v-598h-121v27q-42 -36 -96 -36q-81 0 -128 74q-37 65 -37 150z" />
<glyph unicode="h" horiz-adv-x="440" d="M28 -15v1077h122v-479h139v479h122v-1077h-122v476h-139v-476h-122z" />
<glyph unicode="i" horiz-adv-x="180" d="M28 -15v1077h122v-1077h-122z" />
<glyph unicode="j" horiz-adv-x="416" d="M5 200v165h123v-165q0 -39 15 -67q19 -37 54 -37q69 0 69 104v862h123v-862q0 -89 -51 -155q-58 -69 -141 -69q-86 0 -139 68t-53 156z" />
<glyph unicode="k" horiz-adv-x="440" d="M28 -15v1077h122v-382l141 382h127l-192 -540l192 -537h-127l-141 384v-384h-122z" />
<glyph unicode="l" horiz-adv-x="362" d="M28 -15v1077h122v-958h209v-119h-331z" />
<glyph unicode="m" horiz-adv-x="490" d="M28 -15v1077h118l100 -406l99 406h118v-1077h-121v546l-96 -374l-96 374v-546h-122z" />
<glyph unicode="n" horiz-adv-x="440" d="M28 -15v1077h118l143 -566v566h122v-1077h-118l-143 564v-564h-122z" />
<glyph unicode="o" horiz-adv-x="433" d="M24 200v645q0 87 54 156q53 70 138 70t141 -71q50 -66 50 -155v-645q0 -90 -50 -155q-57 -69 -141 -69q-85 0 -138 68q-54 68 -54 156zM146 200q0 -39 16 -67q19 -37 54 -37q70 0 70 104v645q0 104 -70 104q-35 0 -54 -37q-16 -29 -16 -67v-645z" />
<glyph unicode="p" horiz-adv-x="418" d="M28 -15v1077h191q86 0 141 -72q51 -69 51 -155v-148q0 -85 -51 -155q-55 -71 -141 -71h-69v-476h-122zM150 583h69q70 0 70 104v148q0 105 -70 105h-69v-357z" />
<glyph unicode="q" horiz-adv-x="472" d="M27 209v636q0 87 53 156q53 70 137 70q86 0 142 -71q50 -66 50 -155v-636q0 -61 -28 -105h72v-119h-236q-84 0 -137 68t-53 156zM148 209q0 -40 15 -68q20 -37 54 -37q71 0 71 105v636q0 104 -71 104q-34 0 -54 -37q-15 -30 -15 -67v-636z" />
<glyph unicode="r" horiz-adv-x="436" d="M28 -15v1077h191q86 0 141 -72q51 -69 51 -155v-113q0 -137 -100 -200q100 -63 100 -200v-337h-122v372q0 104 -70 104h-69v-476h-122zM150 583h69q70 0 70 104v148q0 105 -70 105h-69v-357z" />
<glyph unicode="s" horiz-adv-x="428" d="M22 200v165h123v-165q0 -104 69 -104q70 0 70 130v44q0 124 -68 181q-31 23 -62.5 46.5t-62.5 47.5q-69 71 -69 229v71q0 87 53 156q54 70 139 70q86 0 141 -71q51 -70 51 -155v-166h-122v166q0 104 -70 104q-69 0 -69 -131v-44q0 -124 67 -180q32 -24 63 -47.5t63 -46.5 q68 -72 68 -230v-70q0 -86 -51 -155q-55 -69 -141 -69q-85 0 -139 68q-53 68 -53 156z" />
<glyph unicode="t" horiz-adv-x="405" d="M10 940v122h384v-122h-131v-955h-122v955h-131z" />
<glyph unicode="u" horiz-adv-x="436" d="M27 200v862h121v-862q0 -39 15 -67q20 -37 54 -37q71 0 71 104v862h121v-862q0 -90 -50 -155q-57 -69 -142 -69q-84 0 -137 68t-53 156z" />
<glyph unicode="v" horiz-adv-x="499" d="M12 1062h126l109 -697l115 697h126l-182 -1077h-118z" />
<glyph unicode="w" horiz-adv-x="593" d="M20 1062h125l40 -655l111 552l108 -552l44 655h124l-90 -1077h-120l-68 397l-68 -397h-120z" />
<glyph unicode="x" horiz-adv-x="440" d="M22 -15l135 537l-135 540h128l69 -289l70 289h127l-134 -540l134 -537h-127l-70 286l-69 -286h-128z" />
<glyph unicode="y" horiz-adv-x="412" d="M12 1062h126l67 -429l68 429h128q-12 -69 -31 -169t-45 -238l-57 -310v-74v-286h-125v168q1 56 1.5 98t0.5 71q0 104 -54 365q-21 95 -40 187t-39 188z" />
<glyph unicode="z" horiz-adv-x="426" d="M15 -15l241 955h-200v122h353l-240 -958h200v-119h-354z" />
<glyph unicode="{" horiz-adv-x="527" d="M10 635v122h105q34 0 54 37q16 28 16 68v409q0 88 50 153q56 73 141 73h104v-122h-104q-34 0 -53 -34q-17 -36 -17 -70v-374q0 -138 -99 -200q99 -63 99 -201v-375q0 -38 16 -67q20 -37 54 -37h104v-120h-104q-85 0 -141 73q-50 63 -50 151v410q0 33 -18 70 q-16 34 -52 34h-105z" />
<glyph unicode="|" horiz-adv-x="300" d="M86 -103v1600h121v-1600h-121z" />
<glyph unicode="}" horiz-adv-x="527" d="M45 17h105q34 0 54 37q15 29 15 67v375q0 138 99 201q-99 62 -99 200v374q0 34 -17 70q-17 34 -52 34h-105v122h105q84 0 141 -73q51 -66 51 -153v-409q0 -40 15 -68q19 -37 54 -37h104v-122h-104q-36 0 -52 -34q-17 -37 -17 -70v-410q0 -84 -51 -151q-57 -73 -141 -73 h-105v120z" />
<glyph unicode="~" horiz-adv-x="684" d="M66 1203v129q111 78 192 78q42 0 92 -35t81 -35q68 0 192 86v-130q-111 -77 -192 -77q-41 0 -91 35q-50 34 -82 34q-68 0 -192 -85z" />
<glyph unicode="&#xa0;" />
<glyph unicode="&#xa1;" horiz-adv-x="245" d="M57 -190l17 1165h88l18 -1165h-123zM57 1114v122h123v-122h-123z" />
<glyph unicode="&#xa2;" horiz-adv-x="485" d="M56 897v295q0 77 38 136q41 68 110 86v83h87v-83q68 -18 110 -86q38 -59 38 -136v-78h-122v41q1 141 -70 141q-34 0 -54 -35q-16 -30 -16 -69v-295q0 -40 16 -69q20 -35 54 -35q51 0 64 71q6 27 6 111h122v-78q0 -77 -38 -136q-42 -69 -110 -86v-83h-87v83 q-69 17 -110 86q-38 59 -38 136z" />
<glyph unicode="&#xa5;" horiz-adv-x="480" d="M45 1410h125l69 -538l67 538h128q-19 -124 -46.5 -307.5t-65.5 -432.5h108v-121h-127l-2 -53h129v-122h-130v-75v-55q0 -30 1 -67v-192h-126v389h-126v122h126l-3 53h-123v121h106q-17 108 -44.5 291t-65.5 449z" />
<glyph unicode="&#xa8;" horiz-adv-x="470" d="M86 1463v121h121v-121h-121zM259 1463v121h122v-121h-122z" />
<glyph unicode="&#xa9;" horiz-adv-x="783" d="M27 200v645q0 87 49 153q57 73 141 73h349q84 0 141 -73q50 -66 50 -153v-645q0 -88 -50 -153q-56 -71 -141 -71h-349q-84 0 -141 71q-49 65 -49 153zM148 200q0 -39 15 -67q20 -37 54 -37h349q34 0 54 37q15 28 15 67v645q0 37 -15 67q-20 37 -54 37h-349q-34 0 -54 -37 q-15 -30 -15 -67v-645zM200 374v296q0 88 53 156q53 71 139 71q85 0 140 -72q51 -66 51 -155v-78h-122v40q1 142 -69 142q-34 0 -54 -36q-16 -29 -16 -68v-296q0 -39 16 -68q20 -36 54 -36q51 0 64 72q2 14 3.5 41t1.5 70h122v-79q0 -88 -51 -155q-55 -71 -140 -71t-139 69 q-53 69 -53 157z" />
<glyph unicode="&#xaa;" horiz-adv-x="501" d="M12 -15l176 1077h118l182 -1077h-128l-27 172h-168l-27 -172h-126zM185 278h126l-64 401z" />
<glyph unicode="&#xab;" horiz-adv-x="645" d="M33 522l231 496l110 -50l-207 -446l207 -446l-110 -49zM234 522l231 496l109 -50l-207 -446l207 -446l-109 -49z" />
<glyph unicode="&#xad;" horiz-adv-x="556" d="M86 461v122h382v-122h-382z" />
<glyph unicode="&#xae;" horiz-adv-x="893" d="M81 200v645q0 87 50 153q56 73 140 73h349q84 0 141 -73q50 -66 50 -153v-645q0 -88 -50 -153q-56 -71 -141 -71h-349q-84 0 -140 71q-50 65 -50 153zM202 200q0 -39 15 -67q20 -37 54 -37h349q35 0 53 37q17 28 17 67v645q0 38 -17 67q-18 37 -53 37h-349q-34 0 -54 -37 q-15 -30 -15 -67v-645zM254 157v730h192q85 0 140 -72q52 -66 52 -153q0 -138 -100 -201q100 -63 100 -200v-104h-123q0 5 0.5 17t1.5 31v51q0 145 -71 145h-70v-244h-122zM376 522h70q33 0 54 37q15 32 15 67v36q0 33 -17 69q-17 35 -52 35h-70v-244z" />
<glyph unicode="&#xaf;" horiz-adv-x="640" d="M86 1288v122h468v-122h-468z" />
<glyph unicode="&#xb0;" horiz-adv-x="416" d="M59 1262q0 61 43 104q44 44 105 44t104 -44q44 -43 44 -104q0 -60 -44 -104q-43 -44 -104 -44t-105 44q-43 44 -43 104zM172 1262q0 -35 35 -35t35 35q0 34 -35 34t-35 -34z" />
<glyph unicode="&#xb1;" horiz-adv-x="490" d="M52 -15v119h384v-119h-384zM52 461v122h131v131h122v-131h131v-122h-131v-131h-122v131h-131z" />
<glyph unicode="&#xb4;" horiz-adv-x="302" d="M45 1463l84 208h147l-125 -208h-106z" />
<glyph unicode="&#xb6;" horiz-adv-x="743" d="M40 862v322q0 88 53 156q54 70 139 70h452v-122h-87v-1478h-122v1478h-52v-1478h-122v825h-69q-85 0 -139 70q-53 68 -53 157z" />
<glyph unicode="&#xb7;" horiz-adv-x="300" d="M86 461v122h121v-122h-121z" />
<glyph unicode="&#xba;" horiz-adv-x="433" d="M24 200v645q0 87 54 156q53 70 138 70t141 -71q50 -66 50 -155v-645q0 -90 -50 -155q-57 -69 -141 -69q-85 0 -138 68q-54 68 -54 156zM146 200q0 -39 16 -67q19 -37 54 -37q70 0 70 104v645q0 104 -70 104q-35 0 -54 -37q-16 -29 -16 -67v-645z" />
<glyph unicode="&#xbb;" horiz-adv-x="645" d="M69 76l207 446l-207 446l111 50l231 -496l-231 -495zM270 76l207 446l-207 446l109 50l232 -496l-232 -495z" />
<glyph unicode="&#xbf;" horiz-adv-x="483" d="M28 27v504q0 83 38 149q47 77 127 77q55 0 96 -38v343h122v-549h-122q0 122 -70 122q-69 0 -69 -104v-504q0 -36 15 -67q20 -36 54 -36q70 0 70 103v165h122v-165q0 -85 -51 -155q-55 -71 -141 -71q-85 0 -140 74q-51 66 -51 152zM289 1114v122h122v-122h-122z" />
<glyph unicode="&#xc0;" d="M14 -15l173 1425h121l178 -1425h-126l-31 259h-160l-31 -259h-124zM111 1671h148l84 -208h-106zM181 365h134l-68 556z" />
<glyph unicode="&#xc1;" d="M14 -15l173 1425h121l178 -1425h-126l-31 259h-160l-31 -259h-124zM132 1463l83 208h148l-125 -208h-106zM181 365h134l-68 556z" />
<glyph unicode="&#xc2;" d="M14 -15l173 1425h121l178 -1425h-126l-31 259h-160l-31 -259h-124zM45 1463l147 208h121l147 -208h-147l-61 89l-60 -89h-147zM181 365h134l-68 556z" />
<glyph unicode="&#xc3;" d="M14 -15l173 1425h121l178 -1425h-126l-31 259h-160l-31 -259h-124zM89 1450v127q75 42 121 42q24 0 56 -18q33 -17 49 -17q38 0 122 47v-127q-73 -41 -122 -41q-19 0 -56 17q-33 17 -49 17q-38 0 -121 -47zM181 365h134l-68 556z" />
<glyph unicode="&#xc4;" d="M14 -15l173 1425h121l178 -1425h-126l-31 259h-160l-31 -259h-124zM130 1463v121h121v-121h-121zM181 365h134l-68 556zM303 1463v121h122v-121h-122z" />
<glyph unicode="&#xc5;" d="M14 -15l173 1425h121l178 -1425h-126l-31 259h-160l-31 -259h-124zM103 1611q0 59 43 104q44 43 105 43t104 -43q44 -44 44 -104q0 -62 -44 -105q-43 -43 -104 -43t-105 43q-43 43 -43 105zM181 365h134l-68 556zM216 1611q0 -35 35 -35t35 35q0 34 -35 34t-35 -34z" />
<glyph unicode="&#xc6;" horiz-adv-x="706" d="M9 -15l351 1425h327v-122h-205v-748h171v-122h-171v-314h205v-119h-330v433h-120l-103 -433h-125zM266 540h91v389z" />
<glyph unicode="&#xc8;" horiz-adv-x="382" d="M28 -15v1425h331v-122h-209v-531h173v-122h-173v-531h209v-119h-331zM86 1671h148l83 -208h-106z" />
<glyph unicode="&#xc9;" horiz-adv-x="382" d="M28 -15v1425h331v-122h-209v-531h173v-122h-173v-531h209v-119h-331zM106 1463l84 208h148l-126 -208h-106z" />
<glyph unicode="&#xca;" horiz-adv-x="382" d="M21 1463l147 208h122l147 -208h-147l-62 89l-60 -89h-147zM28 -15v1425h331v-122h-209v-531h173v-122h-173v-531h209v-119h-331z" />
<glyph unicode="&#xcb;" horiz-adv-x="382" d="M28 -15v1425h331v-122h-209v-531h173v-122h-173v-531h209v-119h-331zM103 1463v121h121v-121h-121zM276 1463v121h123v-121h-123z" />
<glyph unicode="&#xcc;" horiz-adv-x="174" d="M-16 1671h148l83 -208h-106zM28 -15v1425h122v-1425h-122z" />
<glyph unicode="&#xcd;" horiz-adv-x="174" d="M4 1463l84 208h148l-126 -208h-106zM28 -15v1425h122v-1425h-122z" />
<glyph unicode="&#xce;" horiz-adv-x="174" d="M-83 1463l147 208h122l147 -208h-147l-62 89l-60 -89h-147zM28 -15v1425h122v-1425h-122z" />
<glyph unicode="&#xcf;" horiz-adv-x="174" d="M2 1463v121h121v-121h-121zM28 -15v1425h122v-1425h-122zM175 1463v121h123v-121h-123z" />
<glyph unicode="&#xd1;" d="M28 -15v1425h118l143 -760v760h122v-1425h-118l-143 759v-759h-122zM89 1450v127q75 42 121 42q24 0 56 -18q33 -17 49 -17q38 0 122 47v-127q-73 -41 -122 -41q-19 0 -56 17q-33 17 -49 17q-38 0 -121 -47z" />
<glyph unicode="&#xd2;" d="M27 200v992q0 88 53 156q53 71 137 71q86 0 142 -72q50 -65 50 -155v-992q0 -90 -50 -155q-57 -69 -142 -69q-84 0 -137 68t-53 156zM111 1671h148l84 -208h-106zM148 200q0 -39 15 -67q20 -37 54 -37q71 0 71 104v992q0 104 -71 104q-33 0 -54 -35q-15 -30 -15 -69v-992 z" />
<glyph unicode="&#xd3;" d="M27 200v992q0 88 53 156q53 71 137 71q86 0 142 -72q50 -65 50 -155v-992q0 -90 -50 -155q-57 -69 -142 -69q-84 0 -137 68t-53 156zM148 200q0 -39 15 -67q20 -37 54 -37q71 0 71 104v992q0 104 -71 104q-33 0 -54 -35q-15 -30 -15 -69v-992z" />
<glyph unicode="&#xd4;" d="M27 200v992q0 88 53 156q53 71 137 71q86 0 142 -72q50 -65 50 -155v-992q0 -90 -50 -155q-57 -69 -142 -69q-84 0 -137 68t-53 156zM45 1463l147 208h121l147 -208h-147l-61 89l-60 -89h-147zM148 200q0 -39 15 -67q20 -37 54 -37q71 0 71 104v992q0 104 -71 104 q-33 0 -54 -35q-15 -30 -15 -69v-992z" />
<glyph unicode="&#xd5;" d="M27 200v992q0 88 53 156q53 71 137 71q86 0 142 -72q50 -65 50 -155v-992q0 -90 -50 -155q-57 -69 -142 -69q-84 0 -137 68t-53 156zM89 1450v127q75 42 121 42q24 0 56 -18q33 -17 49 -17q38 0 122 47v-127q-73 -41 -122 -41q-19 0 -56 17q-33 17 -49 17q-38 0 -121 -47 zM148 200q0 -39 15 -67q20 -37 54 -37q71 0 71 104v992q0 104 -71 104q-33 0 -54 -35q-15 -30 -15 -69v-992z" />
<glyph unicode="&#xd6;" d="M27 200v992q0 88 53 156q53 71 137 71q86 0 142 -72q50 -65 50 -155v-992q0 -90 -50 -155q-57 -69 -142 -69q-84 0 -137 68t-53 156zM130 1463v121h121v-121h-121zM148 200q0 -39 15 -67q20 -37 54 -37q71 0 71 104v992q0 104 -71 104q-33 0 -54 -35q-15 -30 -15 -69 v-992zM303 1463v121h122v-121h-122z" />
<glyph unicode="&#xd8;" horiz-adv-x="490" d="M20 -73l41 179q-19 46 -19 94v992q0 88 53 156q53 71 139 71q55 0 99 -32l20 105l120 -24l-52 -241q3 -20 3 -35v-992q0 -90 -50 -155q-57 -69 -140 -69q-34 0 -74 17l-19 -91zM163 596l137 635q-16 65 -66 65q-34 0 -54 -35q-17 -29 -17 -69v-596zM188 120 q16 -24 46 -24q69 0 69 104v465z" />
<glyph unicode="&#xd9;" d="M27 200v1210h121v-1210q0 -39 15 -67q20 -37 54 -37q71 0 71 104v1210h121v-1210q0 -90 -50 -155q-57 -69 -142 -69q-84 0 -137 68t-53 156zM111 1671h148l84 -208h-106z" />
<glyph unicode="&#xda;" d="M27 200v1210h121v-1210q0 -39 15 -67q20 -37 54 -37q71 0 71 104v1210h121v-1210q0 -90 -50 -155q-57 -69 -142 -69q-84 0 -137 68t-53 156zM132 1463l83 208h148l-125 -208h-106z" />
<glyph unicode="&#xdb;" d="M27 200v1210h121v-1210q0 -39 15 -67q20 -37 54 -37q71 0 71 104v1210h121v-1210q0 -90 -50 -155q-57 -69 -142 -69q-84 0 -137 68t-53 156zM45 1463l147 208h121l147 -208h-147l-61 89l-60 -89h-147z" />
<glyph unicode="&#xdc;" d="M27 200v1210h121v-1210q0 -39 15 -67q20 -37 54 -37q71 0 71 104v1210h121v-1210q0 -90 -50 -155q-57 -69 -142 -69q-84 0 -137 68t-53 156zM130 1463v121h121v-121h-121zM303 1463v121h122v-121h-122z" />
<glyph unicode="&#xdd;" horiz-adv-x="347" d="M12 1410h126l67 -538l68 538h128l-90 -599q-18 -99 -43 -289q-2 -39 -3 -82t-1 -92q0 -30 0.5 -76t1.5 -108q1 -61 1.5 -106t0.5 -73h-125v478q0 27 -11 112.5t-33 235.5zM89 1463l83 208h148l-125 -208h-106z" />
<glyph unicode="&#xde;" horiz-adv-x="512" d="M86 -15v1425h121v-174h69q86 0 142 -71q50 -69 50 -155v-628q0 -88 -50 -154q-56 -71 -142 -71h-69v-172h-121zM207 278h69q71 0 71 104v628q0 104 -71 104h-69v-836z" />
<glyph unicode="&#xdf;" horiz-adv-x="529" d="M86 -190v1600h190q86 0 142 -72q50 -65 50 -154v-287q0 -138 -99 -200q99 -63 99 -201v-287q0 -94 -58 -159t-151 -65v119q88 0 88 105v322q0 104 -88 104v122q88 0 88 105v322q0 104 -71 104h-69v-1478h-121z" />
<glyph unicode="&#xe0;" d="M12 -15l176 1077h118l182 -1077h-128l-27 172h-168l-27 -172h-126zM111 1326h148l84 -208h-106zM185 278h126l-64 401z" />
<glyph unicode="&#xe1;" d="M12 -15l176 1077h118l182 -1077h-128l-27 172h-168l-27 -172h-126zM132 1118l83 208h148l-125 -208h-106zM185 278h126l-64 401z" />
<glyph unicode="&#xe2;" d="M12 -15l176 1077h118l182 -1077h-128l-27 172h-168l-27 -172h-126zM45 1118l147 208h121l147 -208h-147l-61 90l-60 -90h-147zM185 278h126l-64 401z" />
<glyph unicode="&#xe3;" d="M12 -15l176 1077h118l182 -1077h-128l-27 172h-168l-27 -172h-126zM89 1106v126q75 42 121 42q24 0 56 -17q33 -18 49 -18q38 0 122 47v-126q-73 -42 -122 -42q-19 0 -56 17q-33 18 -49 18q-38 0 -121 -47zM185 278h126l-64 401z" />
<glyph unicode="&#xe4;" d="M12 -15l176 1077h118l182 -1077h-128l-27 172h-168l-27 -172h-126zM130 1118v121h121v-121h-121zM185 278h126l-64 401zM303 1118v121h122v-121h-122z" />
<glyph unicode="&#xe5;" d="M12 -15l176 1077h118l182 -1077h-128l-27 172h-168l-27 -172h-126zM103 1266q0 59 43 104q44 44 105 44t104 -44q44 -44 44 -104q0 -61 -44 -105q-43 -43 -104 -43t-105 43q-43 44 -43 105zM185 278h126l-64 401zM216 1266q0 -35 35 -35t35 35q0 34 -35 34t-35 -34z" />
<glyph unicode="&#xe6;" horiz-adv-x="711" d="M9 -15l355 1077h326v-122h-207v-531h172v-121h-172v-184h207v-119h-331v303h-122l-103 -303h-125zM270 409h89v293z" />
<glyph unicode="&#xe8;" horiz-adv-x="382" d="M28 -15v1077h331v-122h-209v-357h173v-122h-173v-357h209v-119h-331zM86 1326h148l83 -208h-106z" />
<glyph unicode="&#xe9;" horiz-adv-x="382" d="M28 -15v1077h331v-122h-209v-357h173v-122h-173v-357h209v-119h-331zM106 1118l84 208h148l-126 -208h-106z" />
<glyph unicode="&#xea;" horiz-adv-x="382" d="M21 1118l147 208h122l147 -208h-147l-62 90l-60 -90h-147zM28 -15v1077h331v-122h-209v-357h173v-122h-173v-357h209v-119h-331z" />
<glyph unicode="&#xeb;" horiz-adv-x="382" d="M28 -15v1077h331v-122h-209v-357h173v-122h-173v-357h209v-119h-331zM103 1118v121h121v-121h-121zM276 1118v121h123v-121h-123z" />
<glyph unicode="&#xec;" horiz-adv-x="174" d="M-16 1326h148l83 -208h-106zM28 -15v1077h122v-1077h-122z" />
<glyph unicode="&#xed;" horiz-adv-x="174" d="M4 1118l84 208h148l-126 -208h-106zM28 -15v1077h122v-1077h-122z" />
<glyph unicode="&#xee;" horiz-adv-x="174" d="M-83 1118l147 208h122l147 -208h-147l-62 90l-60 -90h-147zM28 -15v1077h122v-1077h-122z" />
<glyph unicode="&#xef;" horiz-adv-x="174" d="M2 1118v121h121v-121h-121zM28 -15v1077h122v-1077h-122zM175 1118v121h123v-121h-123z" />
<glyph unicode="&#xf1;" d="M28 -15v1077h118l143 -566v566h122v-1077h-118l-143 564v-564h-122zM89 1106v126q75 42 121 42q24 0 56 -17q33 -18 49 -18q38 0 122 47v-126q-73 -42 -122 -42q-19 0 -56 17q-33 18 -49 18q-38 0 -121 -47z" />
<glyph unicode="&#xf2;" d="M24 200v645q0 87 54 156q53 70 138 70t141 -71q50 -66 50 -155v-645q0 -90 -50 -155q-57 -69 -141 -69q-85 0 -138 68q-54 68 -54 156zM111 1326h148l84 -208h-106zM146 200q0 -39 16 -67q19 -37 54 -37q70 0 70 104v645q0 104 -70 104q-35 0 -54 -37q-16 -29 -16 -67 v-645z" />
<glyph unicode="&#xf3;" d="M24 200v645q0 87 54 156q53 70 138 70t141 -71q50 -66 50 -155v-645q0 -90 -50 -155q-57 -69 -141 -69q-85 0 -138 68q-54 68 -54 156zM132 1118l83 208h148l-125 -208h-106zM146 200q0 -39 16 -67q19 -37 54 -37q70 0 70 104v645q0 104 -70 104q-35 0 -54 -37 q-16 -29 -16 -67v-645z" />
<glyph unicode="&#xf4;" d="M24 200v645q0 87 54 156q53 70 138 70t141 -71q50 -66 50 -155v-645q0 -90 -50 -155q-57 -69 -141 -69q-85 0 -138 68q-54 68 -54 156zM45 1118l147 208h121l147 -208h-147l-61 90l-60 -90h-147zM146 200q0 -39 16 -67q19 -37 54 -37q70 0 70 104v645q0 104 -70 104 q-35 0 -54 -37q-16 -29 -16 -67v-645z" />
<glyph unicode="&#xf5;" d="M24 200v645q0 87 54 156q53 70 138 70t141 -71q50 -66 50 -155v-645q0 -90 -50 -155q-57 -69 -141 -69q-85 0 -138 68q-54 68 -54 156zM89 1106v126q75 42 121 42q24 0 56 -17q33 -18 49 -18q38 0 122 47v-126q-73 -42 -122 -42q-19 0 -56 17q-33 18 -49 18 q-38 0 -121 -47zM146 200q0 -39 16 -67q19 -37 54 -37q70 0 70 104v645q0 104 -70 104q-35 0 -54 -37q-16 -29 -16 -67v-645z" />
<glyph unicode="&#xf6;" d="M24 200v645q0 87 54 156q53 70 138 70t141 -71q50 -66 50 -155v-645q0 -90 -50 -155q-57 -69 -141 -69q-85 0 -138 68q-54 68 -54 156zM130 1118v121h121v-121h-121zM146 200q0 -39 16 -67q19 -37 54 -37q70 0 70 104v645q0 104 -70 104q-35 0 -54 -37q-16 -29 -16 -67 v-645zM303 1118v121h122v-121h-122z" />
<glyph unicode="&#xf7;" horiz-adv-x="436" d="M27 461v122h382v-122h-382zM157 288v121h121v-121h-121zM157 635v122h121v-122h-121z" />
<glyph unicode="&#xf8;" horiz-adv-x="490" d="M20 -73l44 164q-22 48 -22 109v645q0 87 53 156q53 70 139 70q50 0 93 -29l28 101l118 -24l-57 -210q8 -41 8 -64v-645q0 -90 -50 -155q-57 -69 -140 -69q-36 0 -71 14l-23 -88zM163 448l126 459q-19 42 -55 42q-35 0 -54 -37q-17 -29 -17 -67v-397zM197 110 q17 -14 37 -14q69 0 69 104v296z" />
<glyph unicode="&#xf9;" d="M27 200v862h121v-862q0 -39 15 -67q20 -37 54 -37q71 0 71 104v862h121v-862q0 -90 -50 -155q-57 -69 -142 -69q-84 0 -137 68t-53 156zM111 1326h148l84 -208h-106z" />
<glyph unicode="&#xfa;" d="M27 200v862h121v-862q0 -39 15 -67q20 -37 54 -37q71 0 71 104v862h121v-862q0 -90 -50 -155q-57 -69 -142 -69q-84 0 -137 68t-53 156zM132 1118l83 208h148l-125 -208h-106z" />
<glyph unicode="&#xfb;" d="M27 200v862h121v-862q0 -39 15 -67q20 -37 54 -37q71 0 71 104v862h121v-862q0 -90 -50 -155q-57 -69 -142 -69q-84 0 -137 68t-53 156zM45 1118l147 208h121l147 -208h-147l-61 90l-60 -90h-147z" />
<glyph unicode="&#xfc;" d="M27 200v862h121v-862q0 -39 15 -67q20 -37 54 -37q71 0 71 104v862h121v-862q0 -90 -50 -155q-57 -69 -142 -69q-84 0 -137 68t-53 156zM130 1118v121h121v-121h-121zM303 1118v121h122v-121h-122z" />
<glyph unicode="&#xfd;" horiz-adv-x="347" d="M12 1062h126l67 -429l68 429h128q-12 -69 -31 -169t-45 -238l-57 -310v-74v-286h-125v168q1 56 1.5 98t0.5 71q0 104 -54 365q-21 95 -40 187t-39 188zM89 1118l83 208h148l-125 -208h-106z" />
<glyph unicode="&#xfe;" horiz-adv-x="494" d="M86 -15v1077h121v-175h69q86 0 142 -71q50 -65 50 -154v-280q0 -88 -50 -154q-56 -71 -142 -71h-69v-172h-121zM207 278h69q71 0 71 104v280q0 104 -71 104h-69v-488z" />
<glyph unicode="&#xff;" horiz-adv-x="347" d="M12 1062h126l67 -429l68 429h128q-12 -69 -31 -169t-45 -238l-57 -310v-74v-286h-125v168q1 56 1.5 98t0.5 71q0 104 -54 365q-21 95 -40 187t-39 188zM86 1118v121h121v-121h-121zM259 1118v121h122v-121h-122z" />
<glyph unicode="&#x106;" horiz-adv-x="431" d="M164 1544l84 208h147l-125 -208h-106zM27 200v992q0 88 53 156q53 71 137 71q86 0 142 -72q50 -65 50 -155v-165h-121v165q0 104 -71 104q-33 0 -54 -35q-15 -30 -15 -69v-992q0 -39 15 -67q20 -37 54 -37q71 0 71 104v165h121v-165q0 -90 -50 -155q-57 -69 -142 -69 q-84 0 -137 68t-53 156z" />
<glyph unicode="&#x107;" horiz-adv-x="430" d="M163 1196l84 208h147l-125 -208h-106zM24 200v645q0 87 54 156q53 70 138 70t141 -71q50 -66 50 -155v-166h-121v166q0 104 -70 104q-35 0 -54 -37q-16 -29 -16 -67v-645q0 -39 16 -67q19 -37 54 -37q70 0 70 104v165h121v-165q0 -90 -50 -155q-57 -69 -141 -69 q-85 0 -138 68q-54 68 -54 156z" />
<glyph unicode="&#x131;" horiz-adv-x="180" d="M28 -15v1077h122v-1077h-122z" />
<glyph unicode="&#x143;" horiz-adv-x="440" d="M166 1544l84 208h147l-125 -208h-106zM28 -15v1425h118l143 -760v760h122v-1425h-118l-143 759v-759h-122z" />
<glyph unicode="&#x144;" horiz-adv-x="440" d="M166 1196l84 208h147l-125 -208h-106zM28 -15v1077h118l143 -566v566h122v-1077h-118l-143 564v-564h-122z" />
<glyph unicode="&#x152;" horiz-adv-x="724" d="M82 200v992q0 84 38 150q47 77 127 77q54 0 96 -39v30h330v-122h-208v-531h174v-122h-174v-531h208v-119h-330v27q-42 -36 -96 -36q-80 0 -127 74q-38 66 -38 150zM204 200q0 -39 15 -67q20 -37 54 -37q70 0 70 104v992q0 104 -70 104q-33 0 -54 -35q-15 -30 -15 -69 v-992z" />
<glyph unicode="&#x153;" horiz-adv-x="736" d="M81 200v645q0 84 37 149q47 77 128 77q54 0 96 -39v30h330v-122h-209v-357h175v-122h-175v-357h209v-119h-330v27q-42 -36 -96 -36q-81 0 -128 74q-37 65 -37 150zM202 200q0 -39 15 -67q20 -37 54 -37q71 0 71 104v645q0 104 -71 104q-34 0 -54 -37q-15 -30 -15 -67 v-645z" />
<glyph unicode="&#x15a;" horiz-adv-x="430" d="M161 1544l84 208h147l-125 -208h-106zM22 200v165h123v-165q0 -104 69 -104q34 0 54 37q16 30 16 67v157q0 112 -68 224q-63 98 -125 193q-69 124 -69 261v157q0 87 51 153q56 74 141 74q86 0 141 -72q51 -69 51 -155v-165h-122v165q0 104 -70 104q-36 0 -52 -33 q-17 -37 -17 -71v-157q0 -113 67 -224q32 -49 63 -97.5t63 -97.5q68 -120 68 -259v-157q0 -87 -51 -153q-55 -71 -141 -71q-85 0 -139 68q-53 68 -53 156z" />
<glyph unicode="&#x15b;" horiz-adv-x="428" d="M161 1196l84 208h147l-125 -208h-106zM22 200v165h123v-165q0 -104 69 -104q70 0 70 130v44q0 124 -68 181q-31 23 -62.5 46.5t-62.5 47.5q-69 71 -69 229v71q0 87 53 156q54 70 139 70q86 0 141 -71q51 -70 51 -155v-166h-122v166q0 104 -70 104q-69 0 -69 -131v-44 q0 -124 67 -180q32 -24 63 -47.5t63 -46.5q68 -72 68 -230v-70q0 -86 -51 -155q-55 -69 -141 -69q-85 0 -139 68q-53 68 -53 156z" />
<glyph unicode="&#x178;" horiz-adv-x="347" d="M12 1410h126l67 -538l68 538h128l-90 -599q-18 -99 -43 -289q-2 -39 -3 -82t-1 -92q0 -30 0.5 -76t1.5 -108q1 -61 1.5 -106t0.5 -73h-125v478q0 27 -11 112.5t-33 235.5zM86 1463v121h121v-121h-121zM259 1463v121h122v-121h-122z" />
<glyph unicode="&#x179;" horiz-adv-x="416" d="M174 1544l84 208h147l-125 -208h-106zM12 -15l251 1303h-213v122h352l-251 -1306h213v-119h-352z" />
<glyph unicode="&#x17a;" horiz-adv-x="426" d="M180 1196l84 208h147l-125 -208h-106zM15 -15l241 955h-200v122h353l-240 -958h200v-119h-354z" />
<glyph unicode="&#x17b;" horiz-adv-x="416" d="M166 1544v119h121v-119h-121zM12 -15l251 1303h-213v122h352l-251 -1306h213v-119h-352z" />
<glyph unicode="&#x17c;" horiz-adv-x="426" d="M172 1196v119h121v-119h-121zM15 -15l241 955h-200v122h353l-240 -958h200v-119h-354z" />
<glyph unicode="&#x2c6;" horiz-adv-x="506" d="M45 1463l147 208h121l147 -208h-147l-61 89l-60 -89h-147z" />
<glyph unicode="&#x2c7;" horiz-adv-x="495" d="M40 1671h147l60 -90l61 90h146l-146 -208h-121z" />
<glyph unicode="&#x2d9;" d="M-61 125v119h121v-119h-121z" />
<glyph unicode="&#x2da;" horiz-adv-x="416" d="M59 1611q0 59 43 104q44 43 105 43t104 -43q44 -44 44 -104q0 -62 -44 -105q-43 -43 -104 -43t-105 43q-43 43 -43 105zM172 1611q0 -35 35 -35t35 35q0 34 -35 34t-35 -34z" />
<glyph unicode="&#x2dc;" horiz-adv-x="485" d="M71 1450v127q76 42 122 42q23 0 56 -18q33 -17 49 -17q38 0 121 47v-127q-72 -41 -121 -41q-20 0 -56 17q-33 17 -49 17q-38 0 -122 -47z" />
<glyph unicode="&#x2000;" horiz-adv-x="879" />
<glyph unicode="&#x2001;" horiz-adv-x="1758" />
<glyph unicode="&#x2002;" horiz-adv-x="879" />
<glyph unicode="&#x2003;" horiz-adv-x="1758" />
<glyph unicode="&#x2004;" horiz-adv-x="586" />
<glyph unicode="&#x2005;" horiz-adv-x="439" />
<glyph unicode="&#x2006;" horiz-adv-x="293" />
<glyph unicode="&#x2007;" horiz-adv-x="293" />
<glyph unicode="&#x2008;" horiz-adv-x="219" />
<glyph unicode="&#x2009;" horiz-adv-x="351" />
<glyph unicode="&#x200a;" horiz-adv-x="97" />
<glyph unicode="&#x2010;" horiz-adv-x="556" d="M86 461v122h382v-122h-382z" />
<glyph unicode="&#x2011;" horiz-adv-x="556" d="M86 461v122h382v-122h-382z" />
<glyph unicode="&#x2012;" horiz-adv-x="556" d="M86 461v122h382v-122h-382z" />
<glyph unicode="&#x2013;" horiz-adv-x="470" d="M86 461v122h295v-122h-295z" />
<glyph unicode="&#x2014;" horiz-adv-x="642" d="M86 461v122h469v-122h-469z" />
<glyph unicode="&#x2018;" horiz-adv-x="304" d="M24 1410h148l84 -208h-106z" />
<glyph unicode="&#x2019;" horiz-adv-x="302" d="M45 1202l84 208h147l-125 -208h-106z" />
<glyph unicode="&#x201a;" horiz-adv-x="302" d="M45 -103l84 207h147l-125 -207h-106z" />
<glyph unicode="&#x201c;" horiz-adv-x="534" d="M47 1410h148l83 -208h-106zM239 1410h148l83 -208h-106z" />
<glyph unicode="&#x201d;" horiz-adv-x="534" d="M62 1202l84 208h148l-125 -208h-107zM254 1202l84 208h148l-126 -208h-106z" />
<glyph unicode="&#x201e;" horiz-adv-x="534" d="M62 -103l84 207h148l-125 -207h-107zM254 -103l84 207h148l-126 -207h-106z" />
<glyph unicode="&#x2020;" horiz-adv-x="430" d="M22 1114v122h131v174h122v-174h131v-122h-131v-1217h-122v1217h-131z" />
<glyph unicode="&#x2021;" horiz-adv-x="436" d="M27 766v121h130v227h-130v122h130v174h121v-174h131v-122h-131v-227h131v-121h-131v-869h-121v869h-130z" />
<glyph unicode="&#x2022;" horiz-adv-x="416" d="M59 522q0 61 43 104q44 44 105 44t104 -44q44 -43 44 -104t-44 -105q-43 -43 -104 -43t-105 43q-43 44 -43 105z" />
<glyph unicode="&#x2026;" horiz-adv-x="642" d="M86 -15v119h121v-119h-121zM259 -15v119h122v-119h-122zM434 -15v119h121v-119h-121z" />
<glyph unicode="&#x202f;" horiz-adv-x="351" />
<glyph unicode="&#x2030;" horiz-adv-x="1165" d="M54 887v297q0 88 53 156q54 70 139 70q84 0 141 -72q50 -65 50 -154v-297v-15q0 -9 -1 -14l133 634l121 -24l-187 -879q46 144 160 144q98 0 148 -83q50 83 148 83q80 0 130 -77q44 -65 44 -151v-296q0 -83 -45 -152q-50 -74 -130 -74q-98 0 -147 79q-48 -79 -146 -79 q-81 0 -131 74q-44 69 -44 152v296v14q0 10 1 15l-134 -632l-120 25l187 883q-44 -148 -178 -148q-85 0 -139 69q-53 69 -53 156zM175 887q0 -38 17 -67q19 -37 54 -37q69 0 69 104v297q0 104 -69 104q-35 0 -54 -36q-17 -29 -17 -68v-297zM611 209q0 -40 15 -68 q20 -37 54 -37q71 0 71 105v296q0 104 -71 104q-34 0 -54 -37q-15 -29 -15 -67v-296zM872 209q0 -40 15 -68q20 -37 54 -37q71 0 71 105v296q0 104 -71 104q-34 0 -54 -37q-15 -29 -15 -67v-296z" />
<glyph unicode="&#x2039;" horiz-adv-x="418" d="M14 473l232 497l109 -51l-207 -446l207 -445l-109 -48z" />
<glyph unicode="&#x203a;" horiz-adv-x="416" d="M61 28l207 445l-207 446l109 51l232 -497l-232 -493z" />
<glyph unicode="&#x205f;" horiz-adv-x="439" />
<glyph unicode="&#x20ac;" horiz-adv-x="579" d="M30 505l24 121h101v140h-91l25 121h66v297q0 88 50 153q57 73 142 73h195l-25 -122h-170q-37 0 -53 -34q-18 -37 -18 -70v-297h196l-24 -121h-172v-140h143l-24 -121h-119v-296q0 -37 17 -68q18 -37 54 -37h191v-119h-191q-86 0 -142 71q-50 65 -50 153v296h-125z" />
<glyph unicode="&#x2122;" horiz-adv-x="926" d="M56 1288v122h466l99 -405l100 405h118v-1080h-122v549l-96 -374l-96 374v-549h-121v958h-96v-958h-121v958h-131z" />
<glyph unicode="&#x2260;" horiz-adv-x="532" d="M51 -248l333 1565l120 -24l-332 -1566zM86 374v122h382v-122h-382zM86 549v121h382v-121h-382z" />
<glyph unicode="&#xe000;" horiz-adv-x="1060" d="M0 1060h1060v-1060h-1060v1060z" />
<glyph unicode="&#xfb01;" horiz-adv-x="542" d="M390 -15v1077h122v-1077h-122zM28 -15v1077h331v-122h-209v-357h173v-122h-173v-476h-122z" />
<glyph unicode="&#xfb02;" horiz-adv-x="724" d="M390 -15v1077h122v-958h209v-119h-331zM28 -15v1077h331v-122h-209v-357h173v-122h-173v-476h-122z" />
</font>
</defs>
</svg>
